<?xml version="1.0" encoding="UTF-8" standalone="no"?>
<!-- Uploaded to: SVG Repo, www.svgrepo.com, Generator: SVG Repo Mixer Tools -->

<svg
   width="800px"
   height="800px"
   viewBox="0 0 48 48"
   version="1.1"
   id="svg7"
   sodipodi:docname="app-icon.svg"
   inkscape:version="1.4.2 (ebf0e94, 2025-05-08)"
   xmlns:inkscape="http://www.inkscape.org/namespaces/inkscape"
   xmlns:sodipodi="http://sodipodi.sourceforge.net/DTD/sodipodi-0.dtd"
   xmlns="http://www.w3.org/2000/svg"
   xmlns:svg="http://www.w3.org/2000/svg">
  <sodipodi:namedview
     id="namedview7"
     pagecolor="#ffffff"
     bordercolor="#000000"
     borderopacity="0.25"
     inkscape:showpageshadow="2"
     inkscape:pageopacity="0.0"
     inkscape:pagecheckerboard="0"
     inkscape:deskcolor="#d1d1d1"
     inkscape:zoom="1.46375"
     inkscape:cx="399.65841"
     inkscape:cy="400"
     inkscape:window-width="2488"
     inkscape:window-height="1376"
     inkscape:window-x="72"
     inkscape:window-y="1467"
     inkscape:window-maximized="1"
     inkscape:current-layer="svg7" />
  <defs
     id="defs1">
    <style
       id="style1">.a{fill:none;stroke:#000000;stroke-linecap:round;stroke-linejoin:round;}</style>
  </defs>
  <path
     class="a"
     d="M32.7554,34.8415H8.1671A2.7945,2.7945,0,0,1,5.3727,32.047V8.2944A2.7944,2.7944,0,0,1,8.1671,5.5H22.531Z"
     id="path1" />
  <path
     class="a"
     d="M25.2,13.1585H39.8329a2.7945,2.7945,0,0,1,2.7944,2.7945V39.7056A2.7944,2.7944,0,0,1,39.8329,42.5H25.469L22.8,34.8414"
     id="path2" />
  <line
     class="a"
     x1="32.7554"
     y1="34.8415"
     x2="25.469"
     y2="42.5"
     id="line2" />
  <path
     class="a"
     d="M16.0441,11.0706h0a3.96,3.96,0,0,1,3.96,3.96v4.8958a3.96,3.96,0,0,1-3.96,3.96h0a3.96,3.96,0,0,1-3.96-3.96h0V15.0307a3.96,3.96,0,0,1,3.96-3.96Z"
     id="path3" />
  <path
     class="a"
     d="M9.4018,21.1048a6.7645,6.7645,0,0,0,13.2847,0"
     id="path4" />
  <line
     class="a"
     x1="16.0441"
     y1="26.5891"
     x2="16.0441"
     y2="29.9251"
     id="line4" />
  <line
     class="a"
     x1="27.9687"
     y1="21.1048"
     x2="39.2192"
     y2="21.1048"
     id="line5" />
  <line
     class="a"
     x1="31.3835"
     y1="30.9044"
     x2="39.2192"
     y2="30.9044"
     id="line6" />
  <line
     class="a"
     x1="29.7307"
     y1="26.0046"
     x2="39.2192"
     y2="26.0046"
     id="line7" />
  <path
     style="fill:#ff0000;stroke-width:0.683177;fill-opacity:1"
     d="m 260.97353,388.96718 c -20.49247,-2.26151 -38.39301,-15.81904 -46.45458,-35.18379 -4.51142,-10.83693 -4.4444,-9.88028 -4.42004,-63.09167 0.0218,-47.72286 0.036,-48.21402 1.54801,-53.62938 5.97692,-21.40706 21.12238,-36.56498 42.15325,-42.18789 7.52222,-2.01117 19.57503,-1.96604 27.32707,0.10233 21.67911,5.78435 37.92711,22.66077 42.29949,43.93549 0.9272,4.51145 1.08054,12.04753 1.07038,52.60461 -0.0129,51.60706 0.006,51.3202 -4.00865,61.70222 -9.12692,23.60436 -34.02716,38.56087 -59.51493,35.74808 z"
     id="path7"
     transform="scale(0.06)" />
  <path
     style="fill:#00ff66;fill-opacity:1;stroke-width:0.683177"
     d="m 128.52663,571.10777 c -5.61295,-1.21791 -11.80159,-4.15255 -16.29993,-7.72936 -4.61017,-3.66574 -9.93406,-11.27771 -11.93241,-17.06068 l -1.575246,-4.55855 V 336.12297 130.48676 l 1.631346,-4.44065 c 4.30481,-11.718 13.27273,-20.33534 25.35414,-24.36296 3.57818,-1.19287 9.47836,-1.26123 123.65499,-1.43269 l 119.89753,-0.18004 81.91348,235.19109 c 45.05242,129.3551 82.05372,235.57538 82.2251,236.04507 0.48619,1.3324 -398.71561,1.13638 -404.869,-0.19881 z m 143.35051,-64.96638 c 4.11485,-2.4307 4.12628,-2.51322 4.12628,-29.80369 v -24.90323 l 4.94197,-0.45931 c 27.65505,-2.57027 56.82683,-17.40499 76.12506,-38.71188 13.73327,-15.1627 22.7902,-31.94696 27.94541,-51.78829 1.92693,-7.41634 2.06553,-10.31794 0.62586,-13.10196 -2.75388,-5.32543 -12.27043,-5.41283 -14.9016,-0.13687 -0.51215,1.02695 -1.47708,4.17289 -2.1443,6.991 -4.50608,19.03211 -13.60021,35.13049 -28.00735,49.57848 -12.15978,12.19428 -25.2249,20.30237 -41.02745,25.46126 -11.97837,3.91045 -16.45237,4.54432 -32.09731,4.54747 -12.53088,0.003 -15.2443,-0.19809 -21.43843,-1.58495 -39.23504,-8.78469 -69.72041,-38.13105 -79.3918,-76.42551 -1.07125,-4.24168 -2.42222,-8.43631 -3.00215,-9.32139 -3.04283,-4.64395 -11.76361,-4.1026 -14.34564,0.89051 -1.51099,2.92194 -1.28449,6.26226 1.00337,14.79676 11.77359,43.91952 47.08891,77.29638 92.089,87.03423 3.48727,0.75463 8.63672,1.56616 11.44321,1.80339 l 5.10273,0.43134 v 24.86964 c 0,27.14489 0.0851,27.791 3.93685,29.88093 2.49283,1.35259 6.6831,1.33032 9.01629,-0.0479 z m 5.15104,-100.0166 c 12.47219,-1.77323 26.03178,-7.25839 35.23255,-14.25235 16.37974,-12.45106 27.00813,-31.15832 29.28052,-51.53726 0.97602,-8.753 0.97602,-89.16757 0,-97.92057 -1.9742,-17.70482 -9.60548,-33.15703 -22.52659,-45.61301 -11.36488,-10.95578 -23.63641,-17.17136 -39.17247,-19.84101 -36.68055,-6.30303 -72.74649,15.82297 -83.78213,51.39928 -3.15207,10.16154 -3.39676,14.71444 -3.38665,63.01502 0.006,26.42659 0.29393,47.43175 0.68942,50.2135 1.62321,11.41706 5.97432,23.06871 12.04106,32.24426 3.40433,5.14881 11.72589,13.87733 17.17405,18.01391 14.91957,11.32786 36.11302,16.88532 54.45024,14.27823 z"
     id="path8"
     transform="scale(0.06)" />
  <path
     style="fill:#00b4ff;fill-opacity:1;stroke-width:0.683177"
     d="m 448.9446,695.31885 c 24.30281,-24.80966 104.13606,-109.6459 104.92166,-111.49689 0.54753,-1.29006 0.81976,-3.21851 0.60554,-4.28961 -0.21405,-1.07024 -4.54538,-13.86727 -9.62519,-28.43783 -5.07981,-14.57056 -9.23602,-26.70514 -9.23602,-26.96573 0,-0.26059 27.06907,-0.47379 60.15348,-0.47379 65.24327,0 62.58573,0.15096 65.10801,-3.69852 1.43756,-2.19399 1.47549,-7.79598 0.0664,-9.80773 -2.32627,-3.3212 -0.23413,-3.21109 -67.88744,-3.57317 l -63.82342,-0.34159 -11.0748,-31.76772 -11.0748,-31.76772 74.55663,-0.34159 c 57.67507,-0.26425 74.89268,-0.53397 76.0408,-1.19124 2.87069,-1.6434 4.32283,-4.26101 4.32283,-7.79222 0,-2.84329 -0.34406,-3.70924 -2.3385,-5.88567 l -2.33851,-2.55188 -78.3391,-0.34159 -78.33911,-0.34158 -11.05932,-31.76772 -11.05932,-31.76772 89.17502,-0.34159 c 70.68802,-0.27077 89.49222,-0.52282 90.70509,-1.21581 2.18331,-1.24746 3.59375,-4.37245 3.59375,-7.96237 0,-2.45703 -0.41215,-3.55875 -1.99342,-5.32855 l -1.99343,-2.2311 -92.79735,-0.18055 -92.79735,-0.18054 -19.76506,-56.86472 c -10.87078,-31.27559 -19.89599,-57.249 -20.05601,-57.71869 -0.23203,-0.68101 23.41858,-0.85156 116.77616,-0.8421 127.9656,0.013 121.87275,-0.17222 130.67083,3.97148 8.66826,4.08255 15.8513,11.90168 19.47006,21.19421 l 1.76824,4.54063 0.18,204.26986 c 0.12475,141.57449 -0.0417,205.34337 -0.54234,207.76752 -0.96651,4.67994 -4.62218,12.09828 -8.08812,16.41296 -3.62981,4.51868 -10.70492,9.33616 -17.18409,11.70073 l -5.10841,1.8643 -113.063,0.18649 -113.06301,0.18649 z"
     id="path9"
     transform="scale(0.06)" />
  <path
     style="fill:#00b4ff;fill-opacity:1;stroke-width:0.683177"
     d="m 410.14629,640.67187 -17.8046,-51.09032 32.98302,-0.17726 c 18.14065,-0.0975 48.07298,-0.0975 66.51627,0 l 33.53326,0.17726 -44.80174,47.1392 c -24.64097,25.92656 -46.56123,48.9172 -48.71169,51.09032 l -3.90993,3.95112 z"
     id="path10"
     transform="scale(0.06)" />
  <path
     style="fill:#ff000e;fill-opacity:1;stroke-width:0.683177"
     d="m 259.26558,388.43145 c -15.48111,-2.5391 -29.85544,-11.5892 -38.60441,-24.3054 -3.00984,-4.37465 -7.28056,-13.60294 -8.6912,-18.78019 -1.10619,-4.0599 -1.20994,-8.71676 -1.20994,-54.31256 0,-46.55711 0.0839,-50.14435 1.26166,-53.97096 4.78464,-15.54513 14.2835,-28.1201 26.75676,-35.42166 32.69773,-19.14051 74.36929,-1.45257 83.70582,35.52982 1.36826,5.41975 1.40111,6.96593 1.19023,56.0205 l -0.21686,50.44692 -1.59206,4.78223 c -3.65757,10.98659 -10.42161,20.98645 -18.70861,27.65854 -5.51093,4.437 -15.10846,9.21858 -22.02973,10.97542 -6.13607,1.55753 -16.70367,2.22331 -21.86166,1.37734 z"
     id="path11"
     transform="scale(0.06)" />
</svg>
