<?xml version="1.0" encoding="utf-8"?>
<!-- Uploaded to: SVG Repo, www.svgrepo.com, Generator: SVG Repo Mixer Tools -->
<svg width="800px" height="800px" viewBox="0 0 1024 1024" class="icon"  version="1.1" xmlns="http://www.w3.org/2000/svg"><path d="M800 272h-576V896h576v-251.008h-0.192c0-0.32 0.192-0.576 0.192-0.896a22.4 22.4 0 0 0-44.864 0c0 0.32 0.192 0.576 0.192 0.896H755.2v-53.888a22.4 22.4 0 1 0 44.8 0V519.872h-0.256c0-0.448 0.256-0.832 0.256-1.28a22.4 22.4 0 0 0-44.8 0c0 0.448 0.256 0.832 0.256 1.28H755.2V405.184h0.32c-0.064 0.512-0.32 0.896-0.32 1.408a22.4 22.4 0 1 0 44.8 0c0-0.512-0.256-0.896-0.32-1.408h0.32V272z" fill="" /><path d="M203.968 831.488a308.032 38.528 0 1 0 616.064 0 308.032 38.528 0 1 0-616.064 0Z" fill="" /><path d="M268.8 316.8h486.4v580.992H268.8z" fill="#2CA6FF" /><path d="M204.032 241.024v54.144s74.688 61.12 308.032 61.12 308.032-61.12 308.032-61.12v-59.712l-616.064 5.568zM820.032 897.728c0 12.288-8.32 21.824-18.496 28.736 0 0-84.48 46.528-289.472 46.528-198.976 0-289.024-47.232-289.024-47.232-10.432-6.528-18.944-15.68-18.944-28.032V838.4c0-12.288 9.408-18.816 20.928-14.464 0 0 105.728 40.064 287.04 40.512 184 0.448 287.168-40.256 287.168-40.256 11.456-4.48 20.8 1.856 20.8 14.208v59.328z" fill="" /><path d="M512 950.656c-189.696 0-277.824-44.288-278.656-44.736-2.56-1.664-6.912-5.376-6.912-8.128v-49.792c28.8 9.6 129.664 38.464 285.504 38.784 157.056 0 255.424-28.16 285.696-38.336v49.28c0 2.688-3.264 6.528-8.768 10.24-0.256 0.064-83.456 42.688-276.864 42.688zM512 333.824c-178.752 0-260.864-36.928-285.568-50.88v-19.776l571.2-5.184v24.896c-24.512 13.952-106.624 50.944-285.632 50.944z" fill="#097EC6" /><path d="M203.968 235.456a308.032 64.704 0 1 0 616.064 0 308.032 64.704 0 1 0-616.064 0Z" fill="" /><path d="M512 277.696c-166.848 0-262.592-26.24-283.072-42.304 20.48-16 116.224-42.24 283.072-42.24s262.592 26.176 283.072 42.24c-20.416 16.128-116.224 42.304-283.072 42.304z" fill="#2CA6FF" /><path d="M518.4 390.784c17.6-0.128 32 14.208 32 31.808v375.488c0 17.6-14.4 32-32 32a32.064 32.064 0 0 1-32-32V423.04c0-17.664 14.4-32.128 32-32.256zM375.232 384.384c17.6-0.128 32 14.208 32 31.808v350.016c0 17.6-14.4 32-32 32a32.064 32.064 0 0 1-32-32V416.576c0-17.6 14.4-32.064 32-32.192z" fill="#097EC6" /><path d="M508.032 128.832a94.08 94.08 0 0 0-94.016 94.016h50.496a43.52 43.52 0 0 1 87.04 0h50.496a94.08 94.08 0 0 0-94.016-94.016z" fill="" /><path d="M660.288 384.384c17.6-0.128 32 14.208 32 31.808v350.016c0 17.6-14.4 32-32 32a32.064 32.064 0 0 1-32-32V416.576c0-17.6 14.4-32.064 32-32.192zM508.032 183.232a39.68 39.68 0 0 1 39.616 39.616h32a71.68 71.68 0 0 0-143.232-0.064h32c0-21.824 17.728-39.552 39.616-39.552z" fill="#097EC6" /><path d="M319.104 795.968a16 16 0 0 1-32 0V372.096a16 16 0 0 1 32 0v423.872z" fill="#FFFFFF" /></svg>